<svg width="35" height="34" viewBox="0 0 35 34" fill="none" xmlns="http://www.w3.org/2000/svg">
<path d="M25.666 1H9.66602C5.24774 1 1.66602 4.58172 1.66602 9V25C1.66602 29.4183 5.24774 33 9.66602 33H25.666C30.0843 33 33.666 29.4183 33.666 25V9C33.666 4.58172 30.0843 1 25.666 1Z" stroke="black" stroke-width="2" stroke-linecap="round" stroke-linejoin="round"/>
<path d="M24.0667 15.992C24.2642 17.3236 24.0367 18.6835 23.4167 19.8784C22.7967 21.0733 21.8158 22.0423 20.6133 22.6475C19.4109 23.2527 18.0482 23.4634 16.7192 23.2495C15.3901 23.0356 14.1623 22.4081 13.2105 21.4563C12.2586 20.5044 11.6311 19.2766 11.4172 17.9475C11.2034 16.6185 11.414 15.2558 12.0192 14.0534C12.6245 12.851 13.5934 11.87 14.7883 11.25C15.9832 10.63 17.3431 10.4025 18.6747 10.6C20.033 10.8014 21.2905 11.4343 22.2614 12.4053C23.2324 13.3762 23.8653 14.6337 24.0667 15.992Z" stroke="black" stroke-width="2" stroke-linecap="round" stroke-linejoin="round"/>
<path d="M26.4668 8.2002H26.4828" stroke="black" stroke-width="2" stroke-linecap="round" stroke-linejoin="round"/>
</svg>
