<svg width="32" height="32" viewBox="0 0 32 32" fill="none" xmlns="http://www.w3.org/2000/svg">
<path d="M28.0337 17.5997C27.6804 17.5997 27.3111 17.4873 26.9578 17.407C26.2425 17.2494 25.5394 17.0401 24.8543 16.7808C24.1094 16.5097 23.2905 16.5238 22.5553 16.8203C21.8202 17.1167 21.2206 17.6746 20.872 18.3865L20.5187 19.1091C18.9547 18.2391 17.5175 17.1585 16.2474 15.8976C14.9865 14.6274 13.9059 13.1903 13.0359 11.6262L13.7103 11.1766C14.4222 10.828 14.9801 10.2285 15.2765 9.49329C15.573 8.75811 15.5871 7.93927 15.3161 7.19434C15.0611 6.50775 14.8519 5.80502 14.6898 5.09078C14.6095 4.73752 14.5453 4.36819 14.4971 3.99886C14.3021 2.8678 13.7097 1.84351 12.8265 1.11048C11.9433 0.377441 10.8275 -0.0161762 9.67982 0.000509514H4.86252C4.17049 -0.00598828 3.48518 0.1367 2.85325 0.41886C2.22131 0.70102 1.65759 1.11603 1.20047 1.63563C0.743337 2.15523 0.403532 2.76723 0.204181 3.42996C0.00483127 4.0927 -0.0493828 4.7906 0.0452299 5.47617C0.900682 12.2033 3.97298 18.4538 8.77682 23.2402C13.5807 28.0266 19.8422 31.0761 26.5725 31.9071H27.1827C28.3668 31.9088 29.51 31.4743 30.3942 30.6867C30.9022 30.2323 31.308 29.6753 31.5848 29.0525C31.8616 28.4297 32.0031 27.7552 31.9999 27.0737V22.2564C31.9803 21.141 31.5741 20.067 30.8508 19.2178C30.1274 18.3685 29.1318 17.7966 28.0337 17.5997ZM28.8366 27.2343C28.8363 27.4623 28.7875 27.6876 28.6933 27.8952C28.5992 28.1029 28.4619 28.2881 28.2906 28.4386C28.1112 28.5935 27.9014 28.7092 27.6747 28.7784C27.4479 28.8475 27.2092 28.8685 26.9739 28.84C20.9602 28.069 15.3742 25.3178 11.0973 21.0204C6.82027 16.7231 4.09563 11.1242 3.35311 5.10684C3.32755 4.87163 3.34995 4.63367 3.41894 4.40736C3.48794 4.18104 3.60211 3.97106 3.75455 3.79011C3.90502 3.61883 4.09025 3.48155 4.2979 3.38742C4.50556 3.29328 4.73088 3.24444 4.95887 3.24415H9.77616C10.1496 3.23585 10.5142 3.35797 10.8073 3.58951C11.1004 3.82104 11.3036 4.14751 11.3819 4.51271C11.4462 4.95162 11.5264 5.38517 11.6228 5.81338C11.8083 6.65985 12.0552 7.49169 12.3614 8.30231L10.1134 9.34606C9.92116 9.43425 9.74826 9.55954 9.6046 9.71474C9.46094 9.86993 9.34935 10.052 9.27624 10.2504C9.20313 10.4489 9.16994 10.6598 9.17858 10.8711C9.18721 11.0824 9.2375 11.2899 9.32655 11.4817C11.6376 16.4319 15.6167 20.4111 20.5669 22.7221C20.9578 22.8827 21.3963 22.8827 21.7873 22.7221C21.9875 22.6505 22.1716 22.5398 22.3287 22.3964C22.4858 22.2531 22.6129 22.0799 22.7026 21.8871L23.6981 19.639C24.5283 19.9359 25.3755 20.1825 26.2353 20.3777C26.6635 20.474 27.097 20.5543 27.5359 20.6185C27.9011 20.6969 28.2276 20.9001 28.4591 21.1932C28.6907 21.4862 28.8128 21.8509 28.8045 22.2243L28.8366 27.2343Z" fill="black"/>
</svg>
