<svg width="277" height="24" viewBox="0 0 277 24" fill="none" xmlns="http://www.w3.org/2000/svg">
<path d="M3.68 6.768V13.488C3.68 14.16 3.84533 14.6773 4.176 15.04C4.50667 15.4027 4.992 15.584 5.632 15.584C6.272 15.584 6.76267 15.4027 7.104 15.04C7.44533 14.6773 7.616 14.16 7.616 13.488V6.768H10.352V13.472C10.352 14.4747 10.1387 15.3227 9.712 16.016C9.28533 16.7093 8.70933 17.232 7.984 17.584C7.26933 17.936 6.46933 18.112 5.584 18.112C4.69867 18.112 3.904 17.9413 3.2 17.6C2.50667 17.248 1.95733 16.7253 1.552 16.032C1.14667 15.328 0.944 14.4747 0.944 13.472V6.768H3.68ZM17.7133 8.976C18.7586 8.976 19.5906 9.31733 20.2093 10C20.8386 10.672 21.1533 11.6 21.1533 12.784V18H18.4333V13.152C18.4333 12.5547 18.2786 12.0907 17.9693 11.76C17.6599 11.4293 17.2439 11.264 16.7213 11.264C16.1986 11.264 15.7826 11.4293 15.4733 11.76C15.1639 12.0907 15.0093 12.5547 15.0093 13.152V18H12.2733V9.072H15.0093V10.256C15.2866 9.86133 15.6599 9.552 16.1293 9.328C16.5986 9.09333 17.1266 8.976 17.7133 8.976ZM25.7905 6.16V18H23.0545V6.16H25.7905ZM31.8373 18.128C30.9626 18.128 30.1733 17.9413 29.4693 17.568C28.7759 17.1947 28.2266 16.6613 27.8213 15.968C27.4266 15.2747 27.2293 14.464 27.2293 13.536C27.2293 12.6187 27.4319 11.8133 27.8372 11.12C28.2426 10.416 28.7973 9.87733 29.5013 9.504C30.2053 9.13067 30.9946 8.944 31.8693 8.944C32.7439 8.944 33.5333 9.13067 34.2373 9.504C34.9413 9.87733 35.4959 10.416 35.9013 11.12C36.3066 11.8133 36.5093 12.6187 36.5093 13.536C36.5093 14.4533 36.3013 15.264 35.8853 15.968C35.4799 16.6613 34.9199 17.1947 34.2053 17.568C33.5013 17.9413 32.7119 18.128 31.8373 18.128ZM31.8373 15.76C32.3599 15.76 32.8026 15.568 33.1653 15.184C33.5386 14.8 33.7253 14.2507 33.7253 13.536C33.7253 12.8213 33.5439 12.272 33.1813 11.888C32.8293 11.504 32.3919 11.312 31.8693 11.312C31.3359 11.312 30.8933 11.504 30.5413 11.888C30.1893 12.2613 30.0133 12.8107 30.0133 13.536C30.0133 14.2507 30.1839 14.8 30.5253 15.184C30.8773 15.568 31.3146 15.76 31.8373 15.76ZM37.4168 13.536C37.4168 12.608 37.6034 11.7973 37.9768 11.104C38.3608 10.4107 38.8888 9.87733 39.5608 9.504C40.2434 9.13067 41.0221 8.944 41.8968 8.944C43.0168 8.944 43.9501 9.23733 44.6968 9.824C45.4541 10.4107 45.9501 11.2373 46.1848 12.304H43.2728C43.0274 11.6213 42.5528 11.28 41.8488 11.28C41.3474 11.28 40.9474 11.4773 40.6488 11.872C40.3501 12.256 40.2008 12.8107 40.2008 13.536C40.2008 14.2613 40.3501 14.8213 40.6488 15.216C40.9474 15.6 41.3474 15.792 41.8488 15.792C42.5528 15.792 43.0274 15.4507 43.2728 14.768H46.1848C45.9501 15.8133 45.4541 16.6347 44.6968 17.232C43.9394 17.8293 43.0061 18.128 41.8968 18.128C41.0221 18.128 40.2434 17.9413 39.5608 17.568C38.8888 17.1947 38.3608 16.6613 37.9768 15.968C37.6034 15.2747 37.4168 14.464 37.4168 13.536ZM53.1043 18L50.3843 14.256V18H47.6483V6.16H50.3843V12.704L53.0883 9.072H56.4643L52.7523 13.552L56.4963 18H53.1043Z" fill="#F9F9F9"/>
<circle cx="68" cy="12" r="3" fill="#D9D9D9"/>
<path d="M88.072 6.768V8.96H85.096V18H82.36V8.96H79.384V6.768H88.072ZM92.1811 10.56C92.5011 10.0693 92.9011 9.68533 93.3811 9.408C93.8611 9.12 94.3945 8.976 94.9811 8.976V11.872H94.2291C93.5465 11.872 93.0345 12.0213 92.6931 12.32C92.3518 12.608 92.1811 13.12 92.1811 13.856V18H89.4451V9.072H92.1811V10.56ZM95.7449 13.52C95.7449 12.6027 95.9155 11.7973 96.2569 11.104C96.6089 10.4107 97.0835 9.87733 97.6809 9.504C98.2782 9.13067 98.9449 8.944 99.6809 8.944C100.31 8.944 100.86 9.072 101.329 9.328C101.809 9.584 102.177 9.92 102.433 10.336V9.072H105.169V18H102.433V16.736C102.166 17.152 101.793 17.488 101.313 17.744C100.844 18 100.294 18.128 99.6649 18.128C98.9395 18.128 98.2782 17.9413 97.6809 17.568C97.0835 17.184 96.6089 16.6453 96.2569 15.952C95.9155 15.248 95.7449 14.4373 95.7449 13.52ZM102.433 13.536C102.433 12.8533 102.241 12.3147 101.857 11.92C101.484 11.5253 101.025 11.328 100.481 11.328C99.9369 11.328 99.4729 11.5253 99.0889 11.92C98.7155 12.304 98.5289 12.8373 98.5289 13.52C98.5289 14.2027 98.7155 14.7467 99.0889 15.152C99.4729 15.5467 99.9369 15.744 100.481 15.744C101.025 15.744 101.484 15.5467 101.857 15.152C102.241 14.7573 102.433 14.2187 102.433 13.536ZM112.588 8.976C113.634 8.976 114.466 9.31733 115.084 10C115.714 10.672 116.028 11.6 116.028 12.784V18H113.308V13.152C113.308 12.5547 113.154 12.0907 112.844 11.76C112.535 11.4293 112.119 11.264 111.596 11.264C111.074 11.264 110.658 11.4293 110.348 11.76C110.039 12.0907 109.884 12.5547 109.884 13.152V18H107.148V9.072H109.884V10.256C110.162 9.86133 110.535 9.552 111.004 9.328C111.474 9.09333 112.002 8.976 112.588 8.976ZM121.562 18.128C120.783 18.128 120.09 17.9947 119.482 17.728C118.874 17.4613 118.394 17.0987 118.042 16.64C117.69 16.1707 117.492 15.648 117.45 15.072H120.154C120.186 15.3813 120.33 15.632 120.586 15.824C120.842 16.016 121.156 16.112 121.53 16.112C121.871 16.112 122.132 16.048 122.314 15.92C122.506 15.7813 122.602 15.6053 122.602 15.392C122.602 15.136 122.468 14.9493 122.202 14.832C121.935 14.704 121.503 14.5653 120.906 14.416C120.266 14.2667 119.732 14.112 119.306 13.952C118.879 13.7813 118.511 13.52 118.202 13.168C117.892 12.8053 117.738 12.32 117.738 11.712C117.738 11.2 117.876 10.736 118.154 10.32C118.442 9.89333 118.858 9.55733 119.402 9.312C119.956 9.06667 120.612 8.944 121.37 8.944C122.49 8.944 123.37 9.22133 124.01 9.776C124.66 10.3307 125.034 11.0667 125.13 11.984H122.602C122.559 11.6747 122.42 11.4293 122.186 11.248C121.962 11.0667 121.663 10.976 121.29 10.976C120.97 10.976 120.724 11.04 120.554 11.168C120.383 11.2853 120.298 11.4507 120.298 11.664C120.298 11.92 120.431 12.112 120.698 12.24C120.975 12.368 121.402 12.496 121.978 12.624C122.639 12.7947 123.178 12.9653 123.594 13.136C124.01 13.296 124.372 13.5627 124.682 13.936C125.002 14.2987 125.167 14.7893 125.178 15.408C125.178 15.9307 125.028 16.4 124.73 16.816C124.442 17.2213 124.02 17.5413 123.466 17.776C122.922 18.0107 122.287 18.128 121.562 18.128ZM131.331 11.344H129.859V18H127.123V11.344H126.131V9.072H127.123V8.816C127.123 7.71733 127.438 6.88533 128.067 6.32C128.697 5.744 129.619 5.456 130.835 5.456C131.038 5.456 131.187 5.46133 131.283 5.472V7.792C130.761 7.76 130.393 7.83467 130.179 8.016C129.966 8.19733 129.859 8.52267 129.859 8.992V9.072H131.331V11.344ZM136.681 18.128C135.806 18.128 135.017 17.9413 134.313 17.568C133.62 17.1947 133.07 16.6613 132.665 15.968C132.27 15.2747 132.073 14.464 132.073 13.536C132.073 12.6187 132.276 11.8133 132.681 11.12C133.086 10.416 133.641 9.87733 134.345 9.504C135.049 9.13067 135.838 8.944 136.713 8.944C137.588 8.944 138.377 9.13067 139.081 9.504C139.785 9.87733 140.34 10.416 140.745 11.12C141.15 11.8133 141.353 12.6187 141.353 13.536C141.353 14.4533 141.145 15.264 140.729 15.968C140.324 16.6613 139.764 17.1947 139.049 17.568C138.345 17.9413 137.556 18.128 136.681 18.128ZM136.681 15.76C137.204 15.76 137.646 15.568 138.009 15.184C138.382 14.8 138.569 14.2507 138.569 13.536C138.569 12.8213 138.388 12.272 138.025 11.888C137.673 11.504 137.236 11.312 136.713 11.312C136.18 11.312 135.737 11.504 135.385 11.888C135.033 12.2613 134.857 12.8107 134.857 13.536C134.857 14.2507 135.028 14.8 135.369 15.184C135.721 15.568 136.158 15.76 136.681 15.76ZM145.541 10.56C145.861 10.0693 146.261 9.68533 146.741 9.408C147.221 9.12 147.754 8.976 148.341 8.976V11.872H147.589C146.906 11.872 146.394 12.0213 146.053 12.32C145.711 12.608 145.541 13.12 145.541 13.856V18H142.805V9.072H145.541V10.56ZM161.04 8.976C162.15 8.976 163.03 9.312 163.68 9.984C164.342 10.656 164.672 11.5893 164.672 12.784V18H161.952V13.152C161.952 12.576 161.798 12.1333 161.488 11.824C161.19 11.504 160.774 11.344 160.24 11.344C159.707 11.344 159.286 11.504 158.976 11.824C158.678 12.1333 158.528 12.576 158.528 13.152V18H155.808V13.152C155.808 12.576 155.654 12.1333 155.344 11.824C155.046 11.504 154.63 11.344 154.096 11.344C153.563 11.344 153.142 11.504 152.832 11.824C152.534 12.1333 152.384 12.576 152.384 13.152V18H149.648V9.072H152.384V10.192C152.662 9.81867 153.024 9.52533 153.472 9.312C153.92 9.088 154.427 8.976 154.992 8.976C155.664 8.976 156.262 9.12 156.784 9.408C157.318 9.696 157.734 10.1067 158.032 10.64C158.342 10.1493 158.763 9.74933 159.296 9.44C159.83 9.13067 160.411 8.976 161.04 8.976Z" fill="#F9F9F9"/>
<circle cx="177" cy="12" r="3" fill="#D9D9D9"/>
<path d="M197.072 6.768V8.96H194.096V18H191.36V8.96H188.384V6.768H197.072ZM201.181 10.56C201.501 10.0693 201.901 9.68533 202.381 9.408C202.861 9.12 203.394 8.976 203.981 8.976V11.872H203.229C202.546 11.872 202.034 12.0213 201.693 12.32C201.352 12.608 201.181 13.12 201.181 13.856V18H198.445V9.072H201.181V10.56ZM204.745 13.52C204.745 12.6027 204.916 11.7973 205.257 11.104C205.609 10.4107 206.084 9.87733 206.681 9.504C207.278 9.13067 207.945 8.944 208.681 8.944C209.31 8.944 209.86 9.072 210.329 9.328C210.809 9.584 211.177 9.92 211.433 10.336V9.072H214.169V18H211.433V16.736C211.166 17.152 210.793 17.488 210.313 17.744C209.844 18 209.294 18.128 208.665 18.128C207.94 18.128 207.278 17.9413 206.681 17.568C206.084 17.184 205.609 16.6453 205.257 15.952C204.916 15.248 204.745 14.4373 204.745 13.52ZM211.433 13.536C211.433 12.8533 211.241 12.3147 210.857 11.92C210.484 11.5253 210.025 11.328 209.481 11.328C208.937 11.328 208.473 11.5253 208.089 11.92C207.716 12.304 207.529 12.8373 207.529 13.52C207.529 14.2027 207.716 14.7467 208.089 15.152C208.473 15.5467 208.937 15.744 209.481 15.744C210.025 15.744 210.484 15.5467 210.857 15.152C211.241 14.7573 211.433 14.2187 211.433 13.536ZM221.588 8.976C222.634 8.976 223.466 9.31733 224.084 10C224.714 10.672 225.028 11.6 225.028 12.784V18H222.308V13.152C222.308 12.5547 222.154 12.0907 221.844 11.76C221.535 11.4293 221.119 11.264 220.596 11.264C220.074 11.264 219.658 11.4293 219.348 11.76C219.039 12.0907 218.884 12.5547 218.884 13.152V18H216.148V9.072H218.884V10.256C219.162 9.86133 219.535 9.552 220.004 9.328C220.474 9.09333 221.002 8.976 221.588 8.976ZM230.562 18.128C229.783 18.128 229.09 17.9947 228.482 17.728C227.874 17.4613 227.394 17.0987 227.042 16.64C226.69 16.1707 226.492 15.648 226.45 15.072H229.154C229.186 15.3813 229.33 15.632 229.586 15.824C229.842 16.016 230.156 16.112 230.53 16.112C230.871 16.112 231.132 16.048 231.314 15.92C231.506 15.7813 231.602 15.6053 231.602 15.392C231.602 15.136 231.468 14.9493 231.202 14.832C230.935 14.704 230.503 14.5653 229.906 14.416C229.266 14.2667 228.732 14.112 228.306 13.952C227.879 13.7813 227.511 13.52 227.202 13.168C226.892 12.8053 226.738 12.32 226.738 11.712C226.738 11.2 226.876 10.736 227.154 10.32C227.442 9.89333 227.858 9.55733 228.402 9.312C228.956 9.06667 229.612 8.944 230.37 8.944C231.49 8.944 232.37 9.22133 233.01 9.776C233.66 10.3307 234.034 11.0667 234.13 11.984H231.602C231.559 11.6747 231.42 11.4293 231.186 11.248C230.962 11.0667 230.663 10.976 230.29 10.976C229.97 10.976 229.724 11.04 229.554 11.168C229.383 11.2853 229.298 11.4507 229.298 11.664C229.298 11.92 229.431 12.112 229.698 12.24C229.975 12.368 230.402 12.496 230.978 12.624C231.639 12.7947 232.178 12.9653 232.594 13.136C233.01 13.296 233.372 13.5627 233.682 13.936C234.002 14.2987 234.167 14.7893 234.178 15.408C234.178 15.9307 234.028 16.4 233.73 16.816C233.442 17.2213 233.02 17.5413 232.466 17.776C231.922 18.0107 231.287 18.128 230.562 18.128ZM235.307 13.536C235.307 12.608 235.494 11.7973 235.867 11.104C236.251 10.4107 236.779 9.87733 237.451 9.504C238.134 9.13067 238.913 8.944 239.787 8.944C240.907 8.944 241.841 9.23733 242.587 9.824C243.345 10.4107 243.841 11.2373 244.075 12.304H241.163C240.918 11.6213 240.443 11.28 239.739 11.28C239.238 11.28 238.838 11.4773 238.539 11.872C238.241 12.256 238.091 12.8107 238.091 13.536C238.091 14.2613 238.241 14.8213 238.539 15.216C238.838 15.6 239.238 15.792 239.739 15.792C240.443 15.792 240.918 15.4507 241.163 14.768H244.075C243.841 15.8133 243.345 16.6347 242.587 17.232C241.83 17.8293 240.897 18.128 239.787 18.128C238.913 18.128 238.134 17.9413 237.451 17.568C236.779 17.1947 236.251 16.6613 235.867 15.968C235.494 15.2747 235.307 14.464 235.307 13.536ZM253.955 13.392C253.955 13.648 253.939 13.9147 253.907 14.192H247.715C247.758 14.7467 247.934 15.1733 248.243 15.472C248.563 15.76 248.952 15.904 249.411 15.904C250.094 15.904 250.568 15.616 250.835 15.04H253.747C253.598 15.6267 253.326 16.1547 252.931 16.624C252.547 17.0933 252.062 17.4613 251.475 17.728C250.888 17.9947 250.232 18.128 249.507 18.128C248.632 18.128 247.854 17.9413 247.171 17.568C246.488 17.1947 245.955 16.6613 245.571 15.968C245.187 15.2747 244.995 14.464 244.995 13.536C244.995 12.608 245.182 11.7973 245.555 11.104C245.939 10.4107 246.472 9.87733 247.155 9.504C247.838 9.13067 248.622 8.944 249.507 8.944C250.371 8.944 251.139 9.12533 251.811 9.488C252.483 9.85067 253.006 10.368 253.379 11.04C253.763 11.712 253.955 12.496 253.955 13.392ZM251.155 12.672C251.155 12.2027 250.995 11.8293 250.675 11.552C250.355 11.2747 249.955 11.136 249.475 11.136C249.016 11.136 248.627 11.2693 248.307 11.536C247.998 11.8027 247.806 12.1813 247.731 12.672H251.155ZM260.838 8.976C261.884 8.976 262.716 9.31733 263.334 10C263.964 10.672 264.278 11.6 264.278 12.784V18H261.558V13.152C261.558 12.5547 261.404 12.0907 261.094 11.76C260.785 11.4293 260.369 11.264 259.846 11.264C259.324 11.264 258.908 11.4293 258.598 11.76C258.289 12.0907 258.134 12.5547 258.134 13.152V18H255.398V9.072H258.134V10.256C258.412 9.86133 258.785 9.552 259.254 9.328C259.724 9.09333 260.252 8.976 260.838 8.976ZM265.636 13.52C265.636 12.6027 265.806 11.7973 266.148 11.104C266.5 10.4107 266.974 9.87733 267.572 9.504C268.169 9.13067 268.836 8.944 269.572 8.944C270.158 8.944 270.692 9.06667 271.172 9.312C271.662 9.55733 272.046 9.888 272.324 10.304V6.16H275.06V18H272.324V16.72C272.068 17.1467 271.7 17.488 271.22 17.744C270.75 18 270.201 18.128 269.572 18.128C268.836 18.128 268.169 17.9413 267.572 17.568C266.974 17.184 266.5 16.6453 266.148 15.952C265.806 15.248 265.636 14.4373 265.636 13.52ZM272.324 13.536C272.324 12.8533 272.132 12.3147 271.748 11.92C271.374 11.5253 270.916 11.328 270.372 11.328C269.828 11.328 269.364 11.5253 268.98 11.92C268.606 12.304 268.42 12.8373 268.42 13.52C268.42 14.2027 268.606 14.7467 268.98 15.152C269.364 15.5467 269.828 15.744 270.372 15.744C270.916 15.744 271.374 15.5467 271.748 15.152C272.132 14.7573 272.324 14.2187 272.324 13.536Z" fill="#F9F9F9"/>
</svg>
