<svg width="529" height="39" viewBox="0 0 529 39" fill="none" xmlns="http://www.w3.org/2000/svg">
<path d="M17.7476 12.112C17.1409 12.1467 16.6903 12.242 16.3956 12.398C16.1009 12.5367 15.9016 12.7793 15.7976 13.126C15.6936 13.4553 15.6416 13.9493 15.6416 14.608V22.434C15.6416 23.682 15.5549 24.7567 15.3816 25.658C15.2256 26.542 14.9569 27.3047 14.5756 27.946C14.1423 28.6913 13.5009 29.2807 12.6516 29.714C11.8196 30.1473 10.8749 30.364 9.81761 30.364C7.91095 30.364 6.45495 29.896 5.44961 28.96C4.68695 28.2493 4.17561 27.4433 3.91561 26.542C3.65561 25.6407 3.52561 24.2973 3.52561 22.512V14.348C3.52561 13.6893 3.47361 13.2127 3.36961 12.918C3.26561 12.6233 3.06628 12.424 2.77161 12.32C2.49428 12.216 2.04361 12.1467 1.41961 12.112V11.592C2.14761 11.644 3.25695 11.67 4.74761 11.67C6.15161 11.67 7.25228 11.644 8.04961 11.592V12.112C7.42561 12.1467 6.96628 12.216 6.67161 12.32C6.39428 12.424 6.20361 12.6233 6.09961 12.918C5.99561 13.2127 5.94361 13.6893 5.94361 14.348V22.954C5.94361 24.3407 6.03895 25.4933 6.22961 26.412C6.42028 27.3307 6.81028 28.0673 7.39961 28.622C8.00628 29.1767 8.89028 29.454 10.0516 29.454C11.8889 29.454 13.1803 28.8647 13.9256 27.686C14.6709 26.5073 15.0436 24.852 15.0436 22.72V14.608C15.0436 13.672 14.8703 13.0307 14.5236 12.684C14.1943 12.3373 13.5789 12.1467 12.6776 12.112V11.592C13.3016 11.644 14.1856 11.67 15.3296 11.67C16.3696 11.67 17.1756 11.644 17.7476 11.592V12.112ZM35.2133 14.712C34.6067 14.7467 34.156 14.842 33.8613 14.998C33.5667 15.1367 33.3673 15.3793 33.2633 15.726C33.1593 16.0553 33.1073 16.5493 33.1073 17.208V30.13H32.5093L22.1093 15.726V26.984C22.1093 27.66 22.1613 28.1627 22.2653 28.492C22.3866 28.8213 22.612 29.064 22.9413 29.22C23.2706 29.3587 23.782 29.4453 24.4753 29.48V30C23.8513 29.948 22.9673 29.922 21.8233 29.922C20.7833 29.922 19.9773 29.948 19.4053 30V29.48C20.012 29.4453 20.4626 29.3587 20.7573 29.22C21.052 29.064 21.2513 28.8213 21.3553 28.492C21.4593 28.1453 21.5113 27.6427 21.5113 26.984V16.948C21.5113 16.2893 21.4593 15.8127 21.3553 15.518C21.2513 15.2233 21.052 15.024 20.7573 14.92C20.48 14.816 20.0293 14.7467 19.4053 14.712V14.192C19.9773 14.244 20.7833 14.27 21.8233 14.27C22.7593 14.27 23.5566 14.244 24.2153 14.192L32.5093 25.736V17.208C32.5093 16.532 32.4487 16.0293 32.3273 15.7C32.2233 15.3707 32.0067 15.1367 31.6773 14.998C31.348 14.842 30.8367 14.7467 30.1433 14.712V14.192C30.7673 14.244 31.6513 14.27 32.7953 14.27C33.8353 14.27 34.6413 14.244 35.2133 14.192V14.712ZM43.6818 14.712C43.0578 14.7467 42.5985 14.816 42.3038 14.92C42.0265 15.024 41.8358 15.2233 41.7318 15.518C41.6278 15.8127 41.5758 16.2893 41.5758 16.948V27.244C41.5758 27.9027 41.6278 28.3793 41.7318 28.674C41.8358 28.9687 42.0265 29.168 42.3038 29.272C42.5985 29.3587 43.0578 29.402 43.6818 29.402H45.3198C46.5158 29.402 47.4431 29.0467 48.1018 28.336C48.7778 27.6253 49.1851 26.4467 49.3238 24.8H49.9218C49.8698 25.3373 49.8438 26.048 49.8438 26.932C49.8438 27.8333 49.9045 28.856 50.0258 30C48.8991 29.948 47.0011 29.922 44.3318 29.922C41.1251 29.922 38.6985 29.948 37.0518 30V29.48C37.6758 29.4453 38.1265 29.376 38.4038 29.272C38.6985 29.168 38.8978 28.9687 39.0018 28.674C39.1058 28.3793 39.1578 27.9027 39.1578 27.244V16.948C39.1578 16.2893 39.1058 15.8127 39.0018 15.518C38.8978 15.2233 38.6985 15.024 38.4038 14.92C38.1265 14.816 37.6758 14.7467 37.0518 14.712V14.192C37.7798 14.244 38.8891 14.27 40.3798 14.27C41.7665 14.27 42.8671 14.244 43.6818 14.192V14.712ZM59.7423 13.828C61.337 13.828 62.7323 14.1487 63.9283 14.79C65.1416 15.414 66.0776 16.3413 66.7363 17.572C67.395 18.7853 67.7243 20.2413 67.7243 21.94C67.7243 23.604 67.3776 25.0773 66.6843 26.36C66.0083 27.6253 65.0636 28.6133 63.8503 29.324C62.637 30.0173 61.259 30.364 59.7163 30.364C58.1216 30.364 56.7176 30.052 55.5043 29.428C54.3083 28.7867 53.381 27.8593 52.7223 26.646C52.0636 25.4153 51.7343 23.9507 51.7343 22.252C51.7343 20.588 52.0723 19.1233 52.7483 17.858C53.4416 16.5753 54.395 15.5873 55.6083 14.894C56.8216 14.1833 58.1996 13.828 59.7423 13.828ZM59.6383 14.296C58.581 14.296 57.645 14.634 56.8303 15.31C56.033 15.9687 55.4176 16.896 54.9843 18.092C54.551 19.2707 54.3343 20.6227 54.3343 22.148C54.3343 23.6907 54.577 25.0513 55.0623 26.23C55.5476 27.4087 56.2063 28.3187 57.0383 28.96C57.8703 29.584 58.7976 29.896 59.8203 29.896C60.8776 29.896 61.805 29.5667 62.6023 28.908C63.417 28.232 64.041 27.3047 64.4743 26.126C64.9076 24.93 65.1243 23.5693 65.1243 22.044C65.1243 20.5013 64.8816 19.1407 64.3963 17.962C63.911 16.7833 63.2523 15.882 62.4203 15.258C61.5883 14.6167 60.661 14.296 59.6383 14.296ZM78.2466 13.828C79.0959 13.828 79.8152 13.9753 80.4046 14.27C80.9939 14.5473 81.6092 14.9633 82.2506 15.518C82.4412 15.674 82.6059 15.752 82.7446 15.752C83.0912 15.752 83.3166 15.232 83.4206 14.192H84.0186C83.9492 15.232 83.9146 17.052 83.9146 19.652H83.3166C83.1432 18.7507 82.9699 18.0833 82.7966 17.65C82.6232 17.2167 82.3632 16.7747 82.0166 16.324C81.5312 15.6827 80.9506 15.1973 80.2746 14.868C79.5986 14.5213 78.8879 14.348 78.1426 14.348C77.1199 14.348 76.2272 14.66 75.4646 15.284C74.7192 15.908 74.1386 16.8093 73.7226 17.988C73.3066 19.1667 73.0986 20.5533 73.0986 22.148C73.0986 23.7773 73.3239 25.1727 73.7746 26.334C74.2426 27.478 74.8666 28.3533 75.6466 28.96C76.4439 29.5493 77.3366 29.844 78.3246 29.844C79.0872 29.844 79.8152 29.6793 80.5086 29.35C81.2192 29.0033 81.8172 28.5093 82.3026 27.868C82.6319 27.4173 82.8746 26.9407 83.0306 26.438C83.2039 25.9353 83.3599 25.216 83.4986 24.28H84.0966C84.0966 27.0013 84.1312 28.908 84.2006 30H83.6026C83.5506 29.4627 83.4726 29.0727 83.3686 28.83C83.2646 28.57 83.1259 28.44 82.9526 28.44C82.8139 28.44 82.6406 28.518 82.4326 28.674C81.7739 29.2287 81.1326 29.6533 80.5086 29.948C79.8846 30.2253 79.1219 30.364 78.2206 30.364C76.6779 30.364 75.3259 30.052 74.1646 29.428C73.0032 28.7867 72.1019 27.8593 71.4606 26.646C70.8192 25.4153 70.4986 23.9507 70.4986 22.252C70.4986 20.588 70.8279 19.1233 71.4866 17.858C72.1452 16.5753 73.0639 15.5873 74.2426 14.894C75.4212 14.1833 76.7559 13.828 78.2466 13.828ZM100.518 27.894C101.124 28.6567 101.8 29.1853 102.546 29.48V30C101.714 29.948 100.743 29.922 99.6336 29.922C98.4549 29.922 97.3543 29.948 96.3316 30V29.48C96.8863 29.4627 97.2849 29.4193 97.5276 29.35C97.7703 29.2633 97.8916 29.142 97.8916 28.986C97.8916 28.8127 97.7789 28.5873 97.5536 28.31L94.0956 23.5C93.7489 23.0147 93.3849 22.668 93.0036 22.46C92.6223 22.2347 92.0936 22.1133 91.4176 22.096V27.244C91.4176 27.9027 91.4696 28.3793 91.5736 28.674C91.6776 28.9687 91.8683 29.168 92.1456 29.272C92.4403 29.376 92.8996 29.4453 93.5236 29.48V30C92.7263 29.948 91.6256 29.922 90.2216 29.922C88.7309 29.922 87.6216 29.948 86.8936 30V29.48C87.5176 29.4453 87.9683 29.376 88.2456 29.272C88.5403 29.168 88.7396 28.9687 88.8436 28.674C88.9476 28.3793 88.9996 27.9027 88.9996 27.244V16.948C88.9996 16.2893 88.9476 15.8127 88.8436 15.518C88.7396 15.2233 88.5403 15.024 88.2456 14.92C87.9683 14.816 87.5176 14.7467 86.8936 14.712V14.192C87.6216 14.244 88.7309 14.27 90.2216 14.27C91.6083 14.27 92.7089 14.244 93.5236 14.192V14.712C92.8996 14.7467 92.4403 14.816 92.1456 14.92C91.8683 15.024 91.6776 15.2233 91.5736 15.518C91.4696 15.8127 91.4176 16.2893 91.4176 16.948V21.654C92.0243 21.6193 92.5963 21.4807 93.1336 21.238C93.6709 20.978 94.2603 20.536 94.9016 19.912L97.9956 16.74C98.4463 16.324 98.6716 15.934 98.6716 15.57C98.6716 15.31 98.5416 15.102 98.2816 14.946C98.0216 14.79 97.6403 14.7033 97.1376 14.686V14.192C98.0736 14.244 99.0963 14.27 100.206 14.27C100.951 14.27 101.566 14.244 102.052 14.192V14.686C101.428 14.8073 100.908 14.9893 100.492 15.232C100.076 15.4747 99.5383 15.9167 98.8796 16.558L94.7976 20.64L100.518 27.894Z" fill="#534E55"/>
<path d="M165.766 11.592C165.644 12.8227 165.584 13.932 165.584 14.92C165.584 15.7867 165.61 16.4973 165.662 17.052H165.064C164.925 15.7173 164.752 14.7293 164.544 14.088C164.336 13.4293 163.972 12.9527 163.452 12.658C162.932 12.346 162.134 12.19 161.06 12.19H159.656V26.984C159.656 27.712 159.725 28.2407 159.864 28.57C160.002 28.8993 160.245 29.1247 160.592 29.246C160.938 29.3673 161.502 29.4453 162.282 29.48V30C161.38 29.948 160.106 29.922 158.46 29.922C156.726 29.922 155.444 29.948 154.612 30V29.48C155.392 29.4453 155.955 29.3673 156.302 29.246C156.648 29.1247 156.891 28.8993 157.03 28.57C157.168 28.2407 157.238 27.712 157.238 26.984V12.19H155.834C154.759 12.19 153.962 12.346 153.442 12.658C152.922 12.9527 152.558 13.4293 152.35 14.088C152.142 14.7293 151.968 15.7173 151.83 17.052H151.232C151.284 16.4973 151.31 15.7867 151.31 14.92C151.31 13.932 151.249 12.8227 151.128 11.592C152.566 11.644 155.01 11.67 158.46 11.67C161.892 11.67 164.327 11.644 165.766 11.592ZM184.904 28.908C184.575 29.376 184.193 29.74 183.76 30C183.344 30.2427 182.841 30.364 182.252 30.364C180.796 30.364 179.903 29.7053 179.574 28.388L178.768 25.138C178.525 24.1673 178.161 23.5173 177.676 23.188C177.208 22.8587 176.506 22.694 175.57 22.694H174.088V27.244C174.088 27.9027 174.14 28.3793 174.244 28.674C174.348 28.9687 174.539 29.168 174.816 29.272C175.111 29.376 175.57 29.4453 176.194 29.48V30C175.397 29.948 174.296 29.922 172.892 29.922C171.401 29.922 170.292 29.948 169.564 30V29.48C170.188 29.4453 170.639 29.376 170.916 29.272C171.211 29.168 171.41 28.9687 171.514 28.674C171.618 28.3793 171.67 27.9027 171.67 27.244V16.948C171.67 16.2893 171.618 15.8127 171.514 15.518C171.41 15.2233 171.211 15.024 170.916 14.92C170.639 14.816 170.188 14.7467 169.564 14.712V14.192C170.292 14.244 171.349 14.27 172.736 14.27L175.388 14.244C175.683 14.2267 176.021 14.218 176.402 14.218C178.343 14.218 179.825 14.582 180.848 15.31C181.888 16.038 182.408 16.9827 182.408 18.144C182.408 19.1493 182.001 20.068 181.186 20.9C180.389 21.732 179.071 22.2607 177.234 22.486C177.581 22.5207 177.875 22.5553 178.118 22.59C179.037 22.7287 179.765 23.006 180.302 23.422C180.839 23.838 181.221 24.5053 181.446 25.424L182.018 27.79C182.157 28.3967 182.304 28.83 182.46 29.09C182.633 29.3327 182.85 29.454 183.11 29.454C183.543 29.454 184.02 29.1593 184.54 28.57L184.904 28.908ZM175.752 14.712C175.284 14.712 174.929 14.7727 174.686 14.894C174.461 15.0153 174.305 15.232 174.218 15.544C174.131 15.856 174.088 16.324 174.088 16.948V22.174H175.83C177.355 22.174 178.395 21.8533 178.95 21.212C179.522 20.5533 179.808 19.626 179.808 18.43C179.808 17.182 179.487 16.2547 178.846 15.648C178.222 15.024 177.191 14.712 175.752 14.712ZM200.947 27.816C201.415 28.8907 202.013 29.4453 202.741 29.48V30C202.047 29.948 201.12 29.922 199.959 29.922C198.468 29.922 197.359 29.948 196.631 30V29.48C197.272 29.4453 197.74 29.3587 198.035 29.22C198.347 29.0813 198.503 28.8473 198.503 28.518C198.503 28.2407 198.381 27.8333 198.139 27.296L196.813 24.332H190.495L189.611 26.282C189.316 26.958 189.169 27.5127 189.169 27.946C189.169 28.3967 189.325 28.752 189.637 29.012C189.966 29.2547 190.486 29.4107 191.197 29.48V30C190.677 29.948 189.888 29.922 188.831 29.922C187.773 29.922 187.019 29.948 186.569 30V29.48C187.037 29.3587 187.435 29.0987 187.765 28.7C188.094 28.284 188.406 27.738 188.701 27.062L194.447 14.062H194.863L200.947 27.816ZM196.605 23.812L193.667 17.208L190.703 23.812H196.605ZM221.518 14.712C220.911 14.7467 220.461 14.842 220.166 14.998C219.871 15.1367 219.672 15.3793 219.568 15.726C219.464 16.0553 219.412 16.5493 219.412 17.208V30.13H218.814L208.414 15.726V26.984C208.414 27.66 208.466 28.1627 208.57 28.492C208.691 28.8213 208.917 29.064 209.246 29.22C209.575 29.3587 210.087 29.4453 210.78 29.48V30C210.156 29.948 209.272 29.922 208.128 29.922C207.088 29.922 206.282 29.948 205.71 30V29.48C206.317 29.4453 206.767 29.3587 207.062 29.22C207.357 29.064 207.556 28.8213 207.66 28.492C207.764 28.1453 207.816 27.6427 207.816 26.984V16.948C207.816 16.2893 207.764 15.8127 207.66 15.518C207.556 15.2233 207.357 15.024 207.062 14.92C206.785 14.816 206.334 14.7467 205.71 14.712V14.192C206.282 14.244 207.088 14.27 208.128 14.27C209.064 14.27 209.861 14.244 210.52 14.192L218.814 25.736V17.208C218.814 16.532 218.753 16.0293 218.632 15.7C218.528 15.3707 218.311 15.1367 217.982 14.998C217.653 14.842 217.141 14.7467 216.448 14.712V14.192C217.072 14.244 217.956 14.27 219.1 14.27C220.14 14.27 220.946 14.244 221.518 14.192V14.712ZM230.794 13.828C231.557 13.828 232.155 13.9147 232.588 14.088C233.039 14.244 233.498 14.478 233.966 14.79C234.348 15.0327 234.642 15.154 234.85 15.154C235.006 15.154 235.128 15.0673 235.214 14.894C235.301 14.7033 235.37 14.4087 235.422 14.01H236.02C235.934 14.9113 235.89 16.506 235.89 18.794H235.292C235.188 17.546 234.781 16.4887 234.07 15.622C233.377 14.7553 232.363 14.322 231.028 14.322C230.11 14.322 229.347 14.5647 228.74 15.05C228.151 15.5353 227.856 16.1507 227.856 16.896C227.856 17.4333 227.986 17.9013 228.246 18.3C228.524 18.6987 228.87 19.0453 229.286 19.34C229.72 19.6173 230.326 19.964 231.106 20.38L231.964 20.848C233.039 21.42 233.897 21.9313 234.538 22.382C235.197 22.8327 235.726 23.3527 236.124 23.942C236.523 24.514 236.722 25.1813 236.722 25.944C236.722 27.348 236.211 28.44 235.188 29.22C234.183 29.9827 232.918 30.364 231.392 30.364C230.56 30.364 229.876 30.2773 229.338 30.104C228.818 29.9307 228.316 29.6967 227.83 29.402C227.449 29.1593 227.154 29.038 226.946 29.038C226.79 29.038 226.669 29.1333 226.582 29.324C226.496 29.4973 226.426 29.7833 226.374 30.182H225.776C225.846 29.3327 225.88 27.426 225.88 24.462H226.478C226.6 26.074 227.033 27.374 227.778 28.362C228.524 29.35 229.668 29.844 231.21 29.844C232.077 29.844 232.822 29.6013 233.446 29.116C234.088 28.6133 234.408 27.8767 234.408 26.906C234.408 26.334 234.244 25.8313 233.914 25.398C233.585 24.9473 233.143 24.5487 232.588 24.202C232.034 23.8553 231.262 23.422 230.274 22.902C228.853 22.174 227.77 21.446 227.024 20.718C226.279 19.99 225.906 19.0453 225.906 17.884C225.906 16.6013 226.374 15.6047 227.31 14.894C228.264 14.1833 229.425 13.828 230.794 13.828ZM253.548 14.192C253.427 15.232 253.366 16.168 253.366 17C253.366 17.676 253.392 18.2133 253.444 18.612H252.846C252.725 17.1907 252.422 16.2027 251.936 15.648C251.468 15.076 250.697 14.79 249.622 14.79H247.724C247.1 14.79 246.641 14.842 246.346 14.946C246.069 15.0327 245.878 15.2233 245.774 15.518C245.67 15.8127 245.618 16.2893 245.618 16.948V21.784H247.776C248.331 21.784 248.756 21.6453 249.05 21.368C249.345 21.0733 249.544 20.7613 249.648 20.432C249.752 20.0853 249.848 19.652 249.934 19.132H250.532C250.48 19.7213 250.454 20.3627 250.454 21.056V22.044C250.454 22.72 250.506 23.6907 250.61 24.956H250.012C249.908 24.124 249.709 23.474 249.414 23.006C249.12 22.538 248.574 22.304 247.776 22.304H245.618V27.244C245.618 27.9027 245.688 28.3793 245.826 28.674C245.965 28.9687 246.208 29.168 246.554 29.272C246.901 29.376 247.464 29.4453 248.244 29.48V30C247.343 29.948 246.069 29.922 244.422 29.922C242.932 29.922 241.822 29.948 241.094 30V29.48C241.718 29.4453 242.169 29.376 242.446 29.272C242.741 29.168 242.94 28.9687 243.044 28.674C243.148 28.3793 243.2 27.9027 243.2 27.244V16.948C243.2 16.2893 243.148 15.8127 243.044 15.518C242.94 15.2233 242.741 15.024 242.446 14.92C242.169 14.816 241.718 14.7467 241.094 14.712V14.192C242.741 14.244 245.168 14.27 248.374 14.27C250.801 14.27 252.526 14.244 253.548 14.192ZM265.659 13.828C267.253 13.828 268.649 14.1487 269.845 14.79C271.058 15.414 271.994 16.3413 272.653 17.572C273.311 18.7853 273.641 20.2413 273.641 21.94C273.641 23.604 273.294 25.0773 272.601 26.36C271.925 27.6253 270.98 28.6133 269.767 29.324C268.553 30.0173 267.175 30.364 265.633 30.364C264.038 30.364 262.634 30.052 261.421 29.428C260.225 28.7867 259.297 27.8593 258.639 26.646C257.98 25.4153 257.651 23.9507 257.651 22.252C257.651 20.588 257.989 19.1233 258.665 17.858C259.358 16.5753 260.311 15.5873 261.525 14.894C262.738 14.1833 264.116 13.828 265.659 13.828ZM265.555 14.296C264.497 14.296 263.561 14.634 262.747 15.31C261.949 15.9687 261.334 16.896 260.901 18.092C260.467 19.2707 260.251 20.6227 260.251 22.148C260.251 23.6907 260.493 25.0513 260.979 26.23C261.464 27.4087 262.123 28.3187 262.955 28.96C263.787 29.584 264.714 29.896 265.737 29.896C266.794 29.896 267.721 29.5667 268.519 28.908C269.333 28.232 269.957 27.3047 270.391 26.126C270.824 24.93 271.041 23.5693 271.041 22.044C271.041 20.5013 270.798 19.1407 270.313 17.962C269.827 16.7833 269.169 15.882 268.337 15.258C267.505 14.6167 266.577 14.296 265.555 14.296ZM293.165 28.908C292.835 29.376 292.454 29.74 292.021 30C291.605 30.2427 291.102 30.364 290.513 30.364C289.057 30.364 288.164 29.7053 287.835 28.388L287.029 25.138C286.786 24.1673 286.422 23.5173 285.937 23.188C285.469 22.8587 284.767 22.694 283.831 22.694H282.349V27.244C282.349 27.9027 282.401 28.3793 282.505 28.674C282.609 28.9687 282.799 29.168 283.077 29.272C283.371 29.376 283.831 29.4453 284.455 29.48V30C283.657 29.948 282.557 29.922 281.153 29.922C279.662 29.922 278.553 29.948 277.825 30V29.48C278.449 29.4453 278.899 29.376 279.177 29.272C279.471 29.168 279.671 28.9687 279.775 28.674C279.879 28.3793 279.931 27.9027 279.931 27.244V16.948C279.931 16.2893 279.879 15.8127 279.775 15.518C279.671 15.2233 279.471 15.024 279.177 14.92C278.899 14.816 278.449 14.7467 277.825 14.712V14.192C278.553 14.244 279.61 14.27 280.997 14.27L283.649 14.244C283.943 14.2267 284.281 14.218 284.663 14.218C286.604 14.218 288.086 14.582 289.109 15.31C290.149 16.038 290.669 16.9827 290.669 18.144C290.669 19.1493 290.261 20.068 289.447 20.9C288.649 21.732 287.332 22.2607 285.495 22.486C285.841 22.5207 286.136 22.5553 286.379 22.59C287.297 22.7287 288.025 23.006 288.563 23.422C289.1 23.838 289.481 24.5053 289.707 25.424L290.279 27.79C290.417 28.3967 290.565 28.83 290.721 29.09C290.894 29.3327 291.111 29.454 291.371 29.454C291.804 29.454 292.281 29.1593 292.801 28.57L293.165 28.908ZM284.013 14.712C283.545 14.712 283.189 14.7727 282.947 14.894C282.721 15.0153 282.565 15.232 282.479 15.544C282.392 15.856 282.349 16.324 282.349 16.948V22.174H284.091C285.616 22.174 286.656 21.8533 287.211 21.212C287.783 20.5533 288.069 19.626 288.069 18.43C288.069 17.182 287.748 16.2547 287.107 15.648C286.483 15.024 285.451 14.712 284.013 14.712ZM315.941 14.712C315.317 14.7467 314.858 14.816 314.563 14.92C314.286 15.024 314.095 15.2233 313.991 15.518C313.887 15.8127 313.835 16.2893 313.835 16.948V27.244C313.835 27.9027 313.887 28.3793 313.991 28.674C314.095 28.9687 314.286 29.168 314.563 29.272C314.858 29.376 315.317 29.4453 315.941 29.48V30C315.144 29.948 314.043 29.922 312.639 29.922C311.148 29.922 310.039 29.948 309.311 30V29.48C309.935 29.4453 310.386 29.376 310.663 29.272C310.958 29.168 311.157 28.9687 311.261 28.674C311.365 28.3793 311.417 27.9027 311.417 27.244V15.83L305.151 30.13H304.735L298.703 15.856V26.984C298.703 27.66 298.755 28.1627 298.859 28.492C298.98 28.8213 299.206 29.064 299.535 29.22C299.864 29.3587 300.376 29.4453 301.069 29.48V30C300.445 29.948 299.561 29.922 298.417 29.922C297.377 29.922 296.571 29.948 295.999 30V29.48C296.606 29.4453 297.056 29.3587 297.351 29.22C297.646 29.064 297.845 28.8213 297.949 28.492C298.053 28.1453 298.105 27.6427 298.105 26.984V16.948C298.105 16.2893 298.053 15.8127 297.949 15.518C297.845 15.2233 297.646 15.024 297.351 14.92C297.074 14.816 296.623 14.7467 295.999 14.712V14.192C296.571 14.244 297.377 14.27 298.417 14.27C299.249 14.27 299.986 14.244 300.627 14.192L305.853 26.854L311.417 14.27H312.639C314.043 14.27 315.144 14.244 315.941 14.192V14.712Z" fill="#534E55"/>
<path d="M130.17 20C130.17 21.9306 128.596 23.5 126.65 23.5C124.703 23.5 123.129 21.9306 123.129 20C123.129 18.0694 124.703 16.5 126.65 16.5C128.596 16.5 130.17 18.0694 130.17 20Z" stroke="#534E55"/>
<path d="M380.16 11.592C380.039 12.8227 379.978 13.932 379.978 14.92C379.978 15.7867 380.004 16.4973 380.056 17.052H379.458C379.32 15.7173 379.146 14.7293 378.938 14.088C378.73 13.4293 378.366 12.9527 377.846 12.658C377.326 12.346 376.529 12.19 375.454 12.19H374.05V26.984C374.05 27.712 374.12 28.2407 374.258 28.57C374.397 28.8993 374.64 29.1247 374.986 29.246C375.333 29.3673 375.896 29.4453 376.676 29.48V30C375.775 29.948 374.501 29.922 372.854 29.922C371.121 29.922 369.838 29.948 369.006 30V29.48C369.786 29.4453 370.35 29.3673 370.696 29.246C371.043 29.1247 371.286 28.8993 371.424 28.57C371.563 28.2407 371.632 27.712 371.632 26.984V12.19H370.228C369.154 12.19 368.356 12.346 367.836 12.658C367.316 12.9527 366.952 13.4293 366.744 14.088C366.536 14.7293 366.363 15.7173 366.224 17.052H365.626C365.678 16.4973 365.704 15.7867 365.704 14.92C365.704 13.932 365.644 12.8227 365.522 11.592C366.961 11.644 369.405 11.67 372.854 11.67C376.286 11.67 378.722 11.644 380.16 11.592ZM399.299 28.908C398.969 29.376 398.588 29.74 398.155 30C397.739 30.2427 397.236 30.364 396.647 30.364C395.191 30.364 394.298 29.7053 393.969 28.388L393.163 25.138C392.92 24.1673 392.556 23.5173 392.071 23.188C391.603 22.8587 390.901 22.694 389.965 22.694H388.483V27.244C388.483 27.9027 388.535 28.3793 388.639 28.674C388.743 28.9687 388.933 29.168 389.211 29.272C389.505 29.376 389.965 29.4453 390.589 29.48V30C389.791 29.948 388.691 29.922 387.287 29.922C385.796 29.922 384.687 29.948 383.959 30V29.48C384.583 29.4453 385.033 29.376 385.311 29.272C385.605 29.168 385.805 28.9687 385.909 28.674C386.013 28.3793 386.065 27.9027 386.065 27.244V16.948C386.065 16.2893 386.013 15.8127 385.909 15.518C385.805 15.2233 385.605 15.024 385.311 14.92C385.033 14.816 384.583 14.7467 383.959 14.712V14.192C384.687 14.244 385.744 14.27 387.131 14.27L389.783 14.244C390.077 14.2267 390.415 14.218 390.797 14.218C392.738 14.218 394.22 14.582 395.243 15.31C396.283 16.038 396.803 16.9827 396.803 18.144C396.803 19.1493 396.395 20.068 395.581 20.9C394.783 21.732 393.466 22.2607 391.629 22.486C391.975 22.5207 392.27 22.5553 392.513 22.59C393.431 22.7287 394.159 23.006 394.697 23.422C395.234 23.838 395.615 24.5053 395.841 25.424L396.413 27.79C396.551 28.3967 396.699 28.83 396.855 29.09C397.028 29.3327 397.245 29.454 397.505 29.454C397.938 29.454 398.415 29.1593 398.935 28.57L399.299 28.908ZM390.147 14.712C389.679 14.712 389.323 14.7727 389.081 14.894C388.855 15.0153 388.699 15.232 388.613 15.544C388.526 15.856 388.483 16.324 388.483 16.948V22.174H390.225C391.75 22.174 392.79 21.8533 393.345 21.212C393.917 20.5533 394.203 19.626 394.203 18.43C394.203 17.182 393.882 16.2547 393.241 15.648C392.617 15.024 391.585 14.712 390.147 14.712ZM415.341 27.816C415.809 28.8907 416.407 29.4453 417.135 29.48V30C416.442 29.948 415.515 29.922 414.353 29.922C412.863 29.922 411.753 29.948 411.025 30V29.48C411.667 29.4453 412.135 29.3587 412.429 29.22C412.741 29.0813 412.897 28.8473 412.897 28.518C412.897 28.2407 412.776 27.8333 412.533 27.296L411.207 24.332H404.889L404.005 26.282C403.711 26.958 403.563 27.5127 403.563 27.946C403.563 28.3967 403.719 28.752 404.031 29.012C404.361 29.2547 404.881 29.4107 405.591 29.48V30C405.071 29.948 404.283 29.922 403.225 29.922C402.168 29.922 401.414 29.948 400.963 30V29.48C401.431 29.3587 401.83 29.0987 402.159 28.7C402.489 28.284 402.801 27.738 403.095 27.062L408.841 14.062H409.257L415.341 27.816ZM410.999 23.812L408.061 17.208L405.097 23.812H410.999ZM435.913 14.712C435.306 14.7467 434.855 14.842 434.561 14.998C434.266 15.1367 434.067 15.3793 433.963 15.726C433.859 16.0553 433.807 16.5493 433.807 17.208V30.13H433.209L422.809 15.726V26.984C422.809 27.66 422.861 28.1627 422.965 28.492C423.086 28.8213 423.311 29.064 423.641 29.22C423.97 29.3587 424.481 29.4453 425.175 29.48V30C424.551 29.948 423.667 29.922 422.523 29.922C421.483 29.922 420.677 29.948 420.105 30V29.48C420.711 29.4453 421.162 29.3587 421.457 29.22C421.751 29.064 421.951 28.8213 422.055 28.492C422.159 28.1453 422.211 27.6427 422.211 26.984V16.948C422.211 16.2893 422.159 15.8127 422.055 15.518C421.951 15.2233 421.751 15.024 421.457 14.92C421.179 14.816 420.729 14.7467 420.105 14.712V14.192C420.677 14.244 421.483 14.27 422.523 14.27C423.459 14.27 424.256 14.244 424.915 14.192L433.209 25.736V17.208C433.209 16.532 433.148 16.0293 433.027 15.7C432.923 15.3707 432.706 15.1367 432.377 14.998C432.047 14.842 431.536 14.7467 430.843 14.712V14.192C431.467 14.244 432.351 14.27 433.495 14.27C434.535 14.27 435.341 14.244 435.913 14.192V14.712ZM445.189 13.828C445.952 13.828 446.55 13.9147 446.983 14.088C447.434 14.244 447.893 14.478 448.361 14.79C448.742 15.0327 449.037 15.154 449.245 15.154C449.401 15.154 449.522 15.0673 449.609 14.894C449.696 14.7033 449.765 14.4087 449.817 14.01H450.415C450.328 14.9113 450.285 16.506 450.285 18.794H449.687C449.583 17.546 449.176 16.4887 448.465 15.622C447.772 14.7553 446.758 14.322 445.423 14.322C444.504 14.322 443.742 14.5647 443.135 15.05C442.546 15.5353 442.251 16.1507 442.251 16.896C442.251 17.4333 442.381 17.9013 442.641 18.3C442.918 18.6987 443.265 19.0453 443.681 19.34C444.114 19.6173 444.721 19.964 445.501 20.38L446.359 20.848C447.434 21.42 448.292 21.9313 448.933 22.382C449.592 22.8327 450.12 23.3527 450.519 23.942C450.918 24.514 451.117 25.1813 451.117 25.944C451.117 27.348 450.606 28.44 449.583 29.22C448.578 29.9827 447.312 30.364 445.787 30.364C444.955 30.364 444.27 30.2773 443.733 30.104C443.213 29.9307 442.71 29.6967 442.225 29.402C441.844 29.1593 441.549 29.038 441.341 29.038C441.185 29.038 441.064 29.1333 440.977 29.324C440.89 29.4973 440.821 29.7833 440.769 30.182H440.171C440.24 29.3327 440.275 27.426 440.275 24.462H440.873C440.994 26.074 441.428 27.374 442.173 28.362C442.918 29.35 444.062 29.844 445.605 29.844C446.472 29.844 447.217 29.6013 447.841 29.116C448.482 28.6133 448.803 27.8767 448.803 26.906C448.803 26.334 448.638 25.8313 448.309 25.398C447.98 24.9473 447.538 24.5487 446.983 24.202C446.428 23.8553 445.657 23.422 444.669 22.902C443.248 22.174 442.164 21.446 441.419 20.718C440.674 19.99 440.301 19.0453 440.301 17.884C440.301 16.6013 440.769 15.6047 441.705 14.894C442.658 14.1833 443.82 13.828 445.189 13.828ZM463.549 13.828C464.398 13.828 465.118 13.9753 465.707 14.27C466.296 14.5473 466.912 14.9633 467.553 15.518C467.744 15.674 467.908 15.752 468.047 15.752C468.394 15.752 468.619 15.232 468.723 14.192H469.321C469.252 15.232 469.217 17.052 469.217 19.652H468.619C468.446 18.7507 468.272 18.0833 468.099 17.65C467.926 17.2167 467.666 16.7747 467.319 16.324C466.834 15.6827 466.253 15.1973 465.577 14.868C464.901 14.5213 464.19 14.348 463.445 14.348C462.422 14.348 461.53 14.66 460.767 15.284C460.022 15.908 459.441 16.8093 459.025 17.988C458.609 19.1667 458.401 20.5533 458.401 22.148C458.401 23.7773 458.626 25.1727 459.077 26.334C459.545 27.478 460.169 28.3533 460.949 28.96C461.746 29.5493 462.639 29.844 463.627 29.844C464.39 29.844 465.118 29.6793 465.811 29.35C466.522 29.0033 467.12 28.5093 467.605 27.868C467.934 27.4173 468.177 26.9407 468.333 26.438C468.506 25.9353 468.662 25.216 468.801 24.28H469.399C469.399 27.0013 469.434 28.908 469.503 30H468.905C468.853 29.4627 468.775 29.0727 468.671 28.83C468.567 28.57 468.428 28.44 468.255 28.44C468.116 28.44 467.943 28.518 467.735 28.674C467.076 29.2287 466.435 29.6533 465.811 29.948C465.187 30.2253 464.424 30.364 463.523 30.364C461.98 30.364 460.628 30.052 459.467 29.428C458.306 28.7867 457.404 27.8593 456.763 26.646C456.122 25.4153 455.801 23.9507 455.801 22.252C455.801 20.588 456.13 19.1233 456.789 17.858C457.448 16.5753 458.366 15.5873 459.545 14.894C460.724 14.1833 462.058 13.828 463.549 13.828ZM486.938 26.932C486.938 27.8333 486.999 28.856 487.12 30C485.993 29.948 484.095 29.922 481.426 29.922C478.219 29.922 475.793 29.948 474.146 30V29.48C474.77 29.4453 475.221 29.376 475.498 29.272C475.793 29.168 475.992 28.9687 476.096 28.674C476.2 28.3793 476.252 27.9027 476.252 27.244V16.948C476.252 16.2893 476.2 15.8127 476.096 15.518C475.992 15.2233 475.793 15.024 475.498 14.92C475.221 14.816 474.77 14.7467 474.146 14.712V14.192C475.793 14.244 478.219 14.27 481.426 14.27C483.853 14.27 485.577 14.244 486.6 14.192C486.479 15.232 486.418 16.168 486.418 17C486.418 17.676 486.444 18.2133 486.496 18.612H485.898C485.777 17.1907 485.473 16.2027 484.988 15.648C484.52 15.076 483.749 14.79 482.674 14.79H480.776C480.152 14.79 479.693 14.842 479.398 14.946C479.121 15.0327 478.93 15.2233 478.826 15.518C478.722 15.8127 478.67 16.2893 478.67 16.948V21.784H480.828C481.383 21.784 481.807 21.6453 482.102 21.368C482.397 21.0733 482.596 20.7613 482.7 20.432C482.804 20.0853 482.899 19.652 482.986 19.132H483.584C483.532 19.7213 483.506 20.3627 483.506 21.056V22.044C483.506 22.72 483.558 23.6907 483.662 24.956H483.064C482.96 24.124 482.761 23.474 482.466 23.006C482.171 22.538 481.625 22.304 480.828 22.304H478.67V27.244C478.67 27.9027 478.722 28.3793 478.826 28.674C478.93 28.9687 479.121 29.168 479.398 29.272C479.693 29.3587 480.152 29.402 480.776 29.402H482.674C483.541 29.402 484.225 29.2633 484.728 28.986C485.231 28.7087 485.612 28.2667 485.872 27.66C486.132 27.036 486.314 26.1693 486.418 25.06H487.016C486.964 25.528 486.938 26.152 486.938 26.932ZM507.367 14.712C506.76 14.7467 506.31 14.842 506.015 14.998C505.72 15.1367 505.521 15.3793 505.417 15.726C505.313 16.0553 505.261 16.5493 505.261 17.208V30.13H504.663L494.263 15.726V26.984C494.263 27.66 494.315 28.1627 494.419 28.492C494.54 28.8213 494.766 29.064 495.095 29.22C495.424 29.3587 495.936 29.4453 496.629 29.48V30C496.005 29.948 495.121 29.922 493.977 29.922C492.937 29.922 492.131 29.948 491.559 30V29.48C492.166 29.4453 492.616 29.3587 492.911 29.22C493.206 29.064 493.405 28.8213 493.509 28.492C493.613 28.1453 493.665 27.6427 493.665 26.984V16.948C493.665 16.2893 493.613 15.8127 493.509 15.518C493.405 15.2233 493.206 15.024 492.911 14.92C492.634 14.816 492.183 14.7467 491.559 14.712V14.192C492.131 14.244 492.937 14.27 493.977 14.27C494.913 14.27 495.71 14.244 496.369 14.192L504.663 25.736V17.208C504.663 16.532 504.602 16.0293 504.481 15.7C504.377 15.3707 504.16 15.1367 503.831 14.998C503.502 14.842 502.99 14.7467 502.297 14.712V14.192C502.921 14.244 503.805 14.27 504.949 14.27C505.989 14.27 506.795 14.244 507.367 14.192V14.712ZM518.254 14.192C520.958 14.192 522.986 14.8507 524.338 16.168C525.707 17.468 526.392 19.3747 526.392 21.888C526.392 23.5173 526.062 24.9473 525.404 26.178C524.745 27.3913 523.783 28.336 522.518 29.012C521.27 29.6707 519.77 30 518.02 30L516.512 29.974C515.541 29.9393 514.83 29.922 514.38 29.922C512.958 29.922 511.884 29.948 511.156 30V29.48C511.78 29.4453 512.23 29.376 512.508 29.272C512.802 29.168 513.002 28.9687 513.106 28.674C513.21 28.3793 513.262 27.9027 513.262 27.244V16.948C513.262 16.2893 513.21 15.8127 513.106 15.518C513.002 15.2233 512.802 15.024 512.508 14.92C512.23 14.816 511.78 14.7467 511.156 14.712V14.192C511.762 14.244 512.603 14.27 513.678 14.27L515.888 14.244C517.066 14.2093 517.855 14.192 518.254 14.192ZM517.604 14.66C517.066 14.66 516.659 14.7207 516.382 14.842C516.122 14.9633 515.94 15.18 515.836 15.492C515.732 15.804 515.68 16.272 515.68 16.896V27.296C515.68 27.92 515.732 28.388 515.836 28.7C515.94 29.012 516.122 29.2287 516.382 29.35C516.659 29.4713 517.075 29.532 517.63 29.532C519.207 29.532 520.446 29.2547 521.348 28.7C522.249 28.128 522.882 27.296 523.246 26.204C523.61 25.112 523.792 23.708 523.792 21.992C523.792 19.4613 523.324 17.6067 522.388 16.428C521.452 15.2493 519.857 14.66 517.604 14.66Z" fill="#534E55"/>
<path d="M344.268 20C344.268 21.9306 342.694 23.5 340.747 23.5C338.8 23.5 337.227 21.9306 337.227 20C337.227 18.0694 338.8 16.5 340.747 16.5C342.694 16.5 344.268 18.0694 344.268 20Z" stroke="#534E55"/>
</svg>
